<?xml version="1.0" standalone="no"?>
<!DOCTYPE svg PUBLIC "-//W3C//DTD SVG 20010904//EN"
 "http://www.w3.org/TR/2001/REC-SVG-20010904/DTD/svg10.dtd">
<svg version="1.0" xmlns="http://www.w3.org/2000/svg"
 width="512.000000pt" height="512.000000pt" viewBox="0 0 512.000000 512.000000"
 preserveAspectRatio="xMidYMid meet">

<g transform="translate(0.000000,512.000000) scale(0.100000,-0.100000)"
fill="#000000" stroke="none">
<path d="M425 4615 l-25 -24 0 -296 0 -295 -135 0 c-131 0 -137 -1 -160 -25
l-25 -24 0 -1711 0 -1711 25 -24 24 -25 2431 0 2431 0 24 25 25 24 0 1711 0
1711 -25 24 c-23 24 -29 25 -160 25 l-135 0 0 135 c0 131 -1 137 -25 160 l-24
25 -1350 0 -1351 0 -75 150 c-41 82 -83 154 -94 160 -13 7 -242 10 -686 10
l-666 0 -24 -25z m1360 -285 c41 -82 83 -154 94 -160 13 -7 445 -10 1350 -10
l1331 0 0 -80 0 -80 -2000 0 -2000 0 0 240 0 240 575 0 575 0 75 -150z m3095
-2090 l0 -1600 -2320 0 -2320 0 0 1600 0 1600 2320 0 2320 0 0 -1600z"/>
</g>
</svg>
