<?xml version="1.0" standalone="no"?>
<!DOCTYPE svg PUBLIC "-//W3C//DTD SVG 20010904//EN"
 "http://www.w3.org/TR/2001/REC-SVG-20010904/DTD/svg10.dtd">
<svg version="1.0" xmlns="http://www.w3.org/2000/svg"
 width="512.000000pt" height="512.000000pt" viewBox="0 0 512.000000 512.000000"
 preserveAspectRatio="xMidYMid meet">

<g transform="translate(0.000000,512.000000) scale(0.100000,-0.100000)"
fill="#000000" stroke="none">
<path d="M445 4280 c-33 -5 -86 -18 -119 -30 l-59 -22 1094 -1095 c602 -601
1108 -1102 1124 -1112 44 -27 87 -34 137 -21 39 10 147 116 1146 1113 l1103
1102 -60 27 c-35 16 -92 31 -142 38 -99 12 -4130 12 -4224 0z"/>
<path d="M36 3972 c-3 -5 -12 -38 -21 -73 -13 -55 -15 -240 -15 -1339 0 -1364
-1 -1321 48 -1432 l17 -39 717 718 718 718 -729 729 c-400 400 -731 724 -735
718z"/>
<path d="M4357 3232 l-727 -727 710 -710 c564 -564 712 -707 720 -695 5 8 20
44 32 80 l23 65 0 1320 c0 1154 -2 1325 -15 1357 l-15 38 -728 -728z"/>
<path d="M1031 1576 l-705 -705 30 -12 c16 -6 61 -15 99 -20 96 -11 4121 -11
4210 1 39 5 84 14 100 20 l29 11 -699 699 -700 700 -260 -259 c-278 -276 -317
-306 -436 -335 -125 -31 -239 -16 -362 45 -51 26 -108 77 -327 295 -146 145
-268 264 -270 264 -3 0 -322 -317 -709 -704z"/>
</g>
</svg>
